<svg width="352" height="521" viewBox="0 0 352 521" fill="none" xmlns="http://www.w3.org/2000/svg">
<g filter="url(#filter0_d_636_40125)">
<path d="M61.4992 241.28L92.4628 223.219C45.6233 97.5493 61.4992 41.8632 81.2314 8C92.4628 16.2777 114.13 50.5171 121.491 118.243L123.814 153.612C123.814 126.897 125.742 80.994 136.973 58.4185C154.932 74.6728 161.228 109.59 162.131 125.016L172.194 113.352C180.702 104.322 194.249 91.9054 222.123 95.668L233.727 98.6781C238.751 98.6781 242.235 97.9256 245.726 96.7968L252.692 91.9054L273.987 74.9738L281.334 68.9537L283.657 67.825L286.366 67.4487C298.442 65.3417 307.653 80.2415 299.145 95.668L273.987 134.046L267.401 144.958L267.021 147.215L267.788 149.849L268.562 150.602H269.336H270.497L275.529 149.849L291.785 147.215H294.114L296.042 147.968L297.977 149.097L299.145 150.602L299.912 152.107L301.855 161.513L299.145 172.425L294.114 182.584L280.567 198.386L270.891 211.179L263.537 226.229L258.893 238.27L256.957 249.557L255.409 258.211V269.123L256.957 279.282L268.569 295.085L284.438 306.372L263.537 300.728L251.152 291.322L268.569 318.789L284.438 336.097L249.217 304.491L273.213 336.097L261.989 330.453L279.406 360.553L241.476 313.145L273.213 365.445L251.152 351.523L284.438 459.509L287.527 463.648L291.792 466.282H297.597H303.403L313.459 460.262L316.175 459.509L319.265 458.757L322.361 458.38L325.458 458.757L328.941 459.509L332.424 460.638L335.908 462.519L337.843 464.024L339.785 466.282L341.326 468.916L342.882 473.807V480.203L342.1 485.847L339.785 490.738L334.747 495.254L328.561 498.64L321.2 500.521L315.007 501.65L308.04 502.402H299.138L291.792 501.65L283.27 500.521L277.851 499.392L273.206 496.759L263.537 490.738L256.957 498.64H241.476L236.831 490.738L232.574 480.203V466.282L232.562 444.083C222.325 529.869 27.0489 528.74 10.6114 444.083C8.56579 433.547 2.19952 404.199 43.226 336.097L66.9178 295.085L36.3413 300.728L72.3365 279.282L36.3413 284.926L82.7867 269.123L32.4708 273.262L76.2069 247.676L61.4992 241.28Z" fill="white"/>
<path d="M232.562 444.083L263.537 490.738M232.562 444.083L232.574 466.282V480.203L236.831 490.738L241.476 498.64H256.957L263.537 490.738M232.562 444.083C243.391 377.485 175.67 346.256 136.586 360.553L115.299 372.594L128.845 379.366L108.332 394.417L121.878 397.803L144.714 404.199L154.777 418.873L144.714 431.29M232.562 444.083C222.325 529.869 27.0489 528.741 10.6114 444.083C8.56579 433.547 2.19952 404.199 43.226 336.097L66.9178 295.085L36.3413 300.728L72.3365 279.282L36.3413 284.926L82.7867 269.123L32.4708 273.262L76.2069 247.676L61.4992 241.28L92.4628 223.219C45.6233 97.5493 61.4992 41.8632 81.2314 8C92.4628 16.2777 114.13 50.5171 121.491 118.243L123.814 153.612C123.814 126.897 125.742 80.994 136.973 58.4185C154.932 74.6728 161.228 109.59 162.131 125.016L172.194 113.352C180.702 104.322 194.249 91.9054 222.123 95.668L233.727 98.6781C238.751 98.6781 242.235 97.9256 245.726 96.7968L252.692 91.9054L273.987 74.9738L281.334 68.9537L283.657 67.825L286.366 67.4487C298.442 65.3417 307.653 80.2415 299.145 95.668L273.987 134.046L267.401 144.958L267.021 147.215L267.788 149.849L268.562 150.602H269.336H270.497L275.529 149.849L291.785 147.215H294.114L296.042 147.968L297.977 149.097L299.145 150.602L299.912 152.107L301.855 161.513L299.145 172.425L294.114 182.584L280.567 198.386L270.891 211.179L263.537 226.229L258.893 238.27L256.957 249.557L255.409 258.211V269.123L256.957 279.282L268.569 295.085L284.438 306.372L263.537 300.728L251.152 291.322M251.152 291.322L241.476 275.519M251.152 291.322L268.569 318.789L284.438 336.097L249.217 304.491L273.213 336.097L261.989 330.453L279.406 360.553L241.476 313.145L273.213 365.445L251.152 351.523L284.438 459.509L287.527 463.648L291.792 466.282H297.597H303.403L313.459 460.262L316.175 459.509L319.265 458.757L322.361 458.38L325.458 458.757L328.941 459.509L332.424 460.638L335.908 462.519L337.843 464.024L339.785 466.282L341.326 468.916L342.882 473.807V480.203L342.1 485.847L339.785 490.738L334.747 495.254L328.561 498.64L321.2 500.521L315.007 501.65L308.04 502.402H299.138L291.792 501.65L283.27 500.521L277.851 499.392L273.206 496.759L263.537 490.738M210.512 129.907L196.965 140.443L188.45 153.612L181.483 172.425" stroke="black" stroke-width="10"/>
</g>
<defs>
<filter id="filter0_d_636_40125" x="0" y="0.671875" width="351.883" height="520.328" filterUnits="userSpaceOnUse" color-interpolation-filters="sRGB">
<feFlood flood-opacity="0" result="BackgroundImageFix"/>
<feColorMatrix in="SourceAlpha" type="matrix" values="0 0 0 0 0 0 0 0 0 0 0 0 0 0 0 0 0 0 127 0" result="hardAlpha"/>
<feOffset dy="4"/>
<feGaussianBlur stdDeviation="2"/>
<feComposite in2="hardAlpha" operator="out"/>
<feColorMatrix type="matrix" values="0 0 0 0 0 0 0 0 0 0 0 0 0 0 0 0 0 0 0.25 0"/>
<feBlend mode="normal" in2="BackgroundImageFix" result="effect1_dropShadow_636_40125"/>
<feBlend mode="normal" in="SourceGraphic" in2="effect1_dropShadow_636_40125" result="shape"/>
</filter>
</defs>
</svg>
